<mxfile host="app.diagrams.net" modified="2020-11-27T17:33:10.494Z" agent="5.0 (Windows NT 10.0; Win64; x64) AppleWebKit/537.36 (KHTML, like Gecko) Chrome/87.0.4280.66 Safari/537.36" etag="NgyniG6tODA2Ai3-erCX" version="13.10.4" type="github" pages="4">
  <diagram id="gNH_Pl3YNp5ZFhpfkrIm" name="Concept">
    <mxGraphModel dx="1422" dy="834" grid="1" gridSize="10" guides="1" tooltips="1" connect="1" arrows="1" fold="1" page="1" pageScale="1" pageWidth="827" pageHeight="1169" math="0" shadow="0">
      <root>
        <mxCell id="0" />
        <mxCell id="1" parent="0" />
        <mxCell id="Fx4dPaJW4BiNulloLPie-2" value="Девайсы пользователей" style="rounded=0;whiteSpace=wrap;html=1;" parent="1" vertex="1">
          <mxGeometry x="360" y="80" width="120" height="80" as="geometry" />
        </mxCell>
        <mxCell id="Fx4dPaJW4BiNulloLPie-3" value="Серверы Push" style="rounded=0;whiteSpace=wrap;html=1;" parent="1" vertex="1">
          <mxGeometry x="240" y="240" width="120" height="80" as="geometry" />
        </mxCell>
        <mxCell id="Fx4dPaJW4BiNulloLPie-4" value="Серверы backend" style="rounded=0;whiteSpace=wrap;html=1;strokeColor=#82b366;fillColor=none;" parent="1" vertex="1">
          <mxGeometry x="280" y="400" width="120" height="80" as="geometry" />
        </mxCell>
        <mxCell id="Fx4dPaJW4BiNulloLPie-5" value="Серверы API" style="rounded=0;whiteSpace=wrap;html=1;" parent="1" vertex="1">
          <mxGeometry x="480" y="240" width="120" height="80" as="geometry" />
        </mxCell>
        <mxCell id="Fx4dPaJW4BiNulloLPie-6" value="Серверы БД" style="rounded=0;whiteSpace=wrap;html=1;strokeColor=#82b366;fillColor=none;" parent="1" vertex="1">
          <mxGeometry x="440" y="400" width="120" height="80" as="geometry" />
        </mxCell>
        <mxCell id="Fx4dPaJW4BiNulloLPie-7" value="" style="endArrow=none;dashed=1;html=1;" parent="1" edge="1">
          <mxGeometry width="50" height="50" relative="1" as="geometry">
            <mxPoint x="160" y="360" as="sourcePoint" />
            <mxPoint x="680" y="360" as="targetPoint" />
          </mxGeometry>
        </mxCell>
        <mxCell id="Fx4dPaJW4BiNulloLPie-8" value="" style="endArrow=none;dashed=1;html=1;" parent="1" edge="1">
          <mxGeometry width="50" height="50" relative="1" as="geometry">
            <mxPoint x="160" y="200" as="sourcePoint" />
            <mxPoint x="680" y="200" as="targetPoint" />
          </mxGeometry>
        </mxCell>
        <mxCell id="Fx4dPaJW4BiNulloLPie-9" value="Интернет пользователей" style="text;html=1;strokeColor=none;fillColor=none;align=center;verticalAlign=middle;whiteSpace=wrap;rounded=0;" parent="1" vertex="1">
          <mxGeometry x="100" y="110" width="40" height="20" as="geometry" />
        </mxCell>
        <mxCell id="Fx4dPaJW4BiNulloLPie-10" value="Интернет провайдеров" style="text;html=1;strokeColor=none;fillColor=none;align=center;verticalAlign=middle;whiteSpace=wrap;rounded=0;" parent="1" vertex="1">
          <mxGeometry x="100" y="270" width="40" height="20" as="geometry" />
        </mxCell>
        <mxCell id="Fx4dPaJW4BiNulloLPie-11" value="Локальная сеть ЦОД" style="text;html=1;strokeColor=none;fillColor=none;align=center;verticalAlign=middle;whiteSpace=wrap;rounded=0;" parent="1" vertex="1">
          <mxGeometry x="100" y="430" width="40" height="20" as="geometry" />
        </mxCell>
      </root>
    </mxGraphModel>
  </diagram>
  <diagram id="97xaNG5euA9EuqIPgSee" name="DataFlowDiagram">
    <mxGraphModel dx="1422" dy="834" grid="1" gridSize="10" guides="1" tooltips="1" connect="1" arrows="1" fold="1" page="1" pageScale="1" pageWidth="827" pageHeight="1169" math="0" shadow="0">
      <root>
        <mxCell id="g2Xse3lWouedzLYd1xVx-0" />
        <mxCell id="g2Xse3lWouedzLYd1xVx-1" parent="g2Xse3lWouedzLYd1xVx-0" />
        <mxCell id="g2Xse3lWouedzLYd1xVx-2" value="&lt;span&gt;Девайсы&lt;br&gt;пользователя&lt;/span&gt;" style="ellipse;whiteSpace=wrap;html=1;" parent="g2Xse3lWouedzLYd1xVx-1" vertex="1">
          <mxGeometry x="360" y="40" width="120" height="80" as="geometry" />
        </mxCell>
        <mxCell id="4jJjMonkpcFbtJczcELS-1" value="" style="endArrow=classic;html=1;exitX=0;exitY=1;exitDx=0;exitDy=0;entryX=0.5;entryY=0;entryDx=0;entryDy=0;" parent="g2Xse3lWouedzLYd1xVx-1" source="g2Xse3lWouedzLYd1xVx-2" target="4jJjMonkpcFbtJczcELS-7" edge="1">
          <mxGeometry width="50" height="50" relative="1" as="geometry">
            <mxPoint x="390" y="450" as="sourcePoint" />
            <mxPoint x="260" y="220" as="targetPoint" />
            <Array as="points" />
          </mxGeometry>
        </mxCell>
        <mxCell id="4jJjMonkpcFbtJczcELS-7" value="ActorDto&lt;br&gt;&lt;br&gt;&lt;div style=&quot;text-align: left&quot;&gt;&lt;span&gt;Name&lt;/span&gt;&lt;/div&gt;&lt;div style=&quot;text-align: left&quot;&gt;&lt;span&gt;Location&lt;/span&gt;&lt;/div&gt;" style="rounded=0;whiteSpace=wrap;html=1;" parent="g2Xse3lWouedzLYd1xVx-1" vertex="1">
          <mxGeometry x="200" y="240" width="80" height="80" as="geometry" />
        </mxCell>
        <mxCell id="4jJjMonkpcFbtJczcELS-8" value="Серверы Push" style="ellipse;whiteSpace=wrap;html=1;" parent="g2Xse3lWouedzLYd1xVx-1" vertex="1">
          <mxGeometry x="240" y="440" width="120" height="80" as="geometry" />
        </mxCell>
        <mxCell id="4jJjMonkpcFbtJczcELS-9" value="" style="endArrow=classic;html=1;entryX=0.5;entryY=0;entryDx=0;entryDy=0;exitX=0.5;exitY=1;exitDx=0;exitDy=0;" parent="g2Xse3lWouedzLYd1xVx-1" source="4jJjMonkpcFbtJczcELS-7" target="4jJjMonkpcFbtJczcELS-8" edge="1">
          <mxGeometry width="50" height="50" relative="1" as="geometry">
            <mxPoint x="156" y="460" as="sourcePoint" />
            <mxPoint x="206" y="410" as="targetPoint" />
            <Array as="points" />
          </mxGeometry>
        </mxCell>
        <mxCell id="4jJjMonkpcFbtJczcELS-10" value="ActorDto&lt;br&gt;&lt;br&gt;&lt;div style=&quot;text-align: left&quot;&gt;&lt;span&gt;Name&lt;/span&gt;&lt;/div&gt;&lt;div style=&quot;text-align: left&quot;&gt;&lt;span&gt;Location&lt;/span&gt;&lt;/div&gt;" style="rounded=0;whiteSpace=wrap;html=1;" parent="g2Xse3lWouedzLYd1xVx-1" vertex="1">
          <mxGeometry x="320" y="240" width="80" height="80" as="geometry" />
        </mxCell>
        <mxCell id="4jJjMonkpcFbtJczcELS-11" value="" style="endArrow=classic;html=1;exitX=0.5;exitY=0;exitDx=0;exitDy=0;entryX=0.5;entryY=1;entryDx=0;entryDy=0;" parent="g2Xse3lWouedzLYd1xVx-1" source="4jJjMonkpcFbtJczcELS-8" target="4jJjMonkpcFbtJczcELS-10" edge="1">
          <mxGeometry width="50" height="50" relative="1" as="geometry">
            <mxPoint x="506" y="420" as="sourcePoint" />
            <mxPoint x="496" y="340" as="targetPoint" />
          </mxGeometry>
        </mxCell>
        <mxCell id="4jJjMonkpcFbtJczcELS-12" value="" style="endArrow=classic;html=1;exitX=0.5;exitY=0;exitDx=0;exitDy=0;entryX=0;entryY=1;entryDx=0;entryDy=0;" parent="g2Xse3lWouedzLYd1xVx-1" source="4jJjMonkpcFbtJczcELS-10" target="g2Xse3lWouedzLYd1xVx-2" edge="1">
          <mxGeometry width="50" height="50" relative="1" as="geometry">
            <mxPoint x="419.5" y="240" as="sourcePoint" />
            <mxPoint x="419.5" y="160" as="targetPoint" />
          </mxGeometry>
        </mxCell>
        <mxCell id="4jJjMonkpcFbtJczcELS-13" value="Серверы API" style="ellipse;whiteSpace=wrap;html=1;" parent="g2Xse3lWouedzLYd1xVx-1" vertex="1">
          <mxGeometry x="480" y="440" width="120" height="80" as="geometry" />
        </mxCell>
        <mxCell id="qUpkaEM_-UjNtHQLn2R6-0" value="&lt;pre style=&quot;background-color: #ffffff ; color: #080808 ; font-family: &amp;#34;consolas&amp;#34; , monospace ; font-size: 9 8pt&quot;&gt;&lt;span style=&quot;color: #000000&quot;&gt;User2&lt;/span&gt;&lt;/pre&gt;&lt;div style=&quot;text-align: left&quot;&gt;Email&lt;br&gt;&lt;/div&gt;&lt;div style=&quot;text-align: left&quot;&gt;Name&lt;br&gt;Pass&lt;br&gt;Phone&lt;br&gt;&lt;br&gt;&lt;/div&gt;" style="rounded=0;whiteSpace=wrap;html=1;" parent="g2Xse3lWouedzLYd1xVx-1" vertex="1">
          <mxGeometry x="440" y="230" width="80" height="100" as="geometry" />
        </mxCell>
        <mxCell id="qUpkaEM_-UjNtHQLn2R6-1" value="&lt;pre style=&quot;background-color: #ffffff ; color: #080808 ; font-family: &amp;#34;consolas&amp;#34; , monospace ; font-size: 9 8pt&quot;&gt;&lt;span style=&quot;color: #000000&quot;&gt;User2&lt;/span&gt;&lt;/pre&gt;&lt;div style=&quot;text-align: left&quot;&gt;Email&lt;br&gt;&lt;/div&gt;&lt;div style=&quot;text-align: left&quot;&gt;Name&lt;br&gt;Pass&lt;br&gt;Phone&lt;br&gt;&lt;br&gt;&lt;/div&gt;" style="rounded=0;whiteSpace=wrap;html=1;" parent="g2Xse3lWouedzLYd1xVx-1" vertex="1">
          <mxGeometry x="560" y="230" width="80" height="100" as="geometry" />
        </mxCell>
        <mxCell id="qUpkaEM_-UjNtHQLn2R6-2" value="" style="endArrow=classic;html=1;entryX=0.5;entryY=0;entryDx=0;entryDy=0;exitX=1;exitY=1;exitDx=0;exitDy=0;" parent="g2Xse3lWouedzLYd1xVx-1" source="g2Xse3lWouedzLYd1xVx-2" target="qUpkaEM_-UjNtHQLn2R6-0" edge="1">
          <mxGeometry width="50" height="50" relative="1" as="geometry">
            <mxPoint x="462" y="190" as="sourcePoint" />
            <mxPoint x="190" y="250" as="targetPoint" />
            <Array as="points" />
          </mxGeometry>
        </mxCell>
        <mxCell id="qUpkaEM_-UjNtHQLn2R6-3" value="" style="endArrow=classic;html=1;exitX=0.5;exitY=1;exitDx=0;exitDy=0;entryX=0.5;entryY=0;entryDx=0;entryDy=0;" parent="g2Xse3lWouedzLYd1xVx-1" source="qUpkaEM_-UjNtHQLn2R6-0" target="4jJjMonkpcFbtJczcELS-13" edge="1">
          <mxGeometry width="50" height="50" relative="1" as="geometry">
            <mxPoint x="442.42640687119274" y="460.0042712474617" as="sourcePoint" />
            <mxPoint x="480" y="581.72" as="targetPoint" />
            <Array as="points" />
          </mxGeometry>
        </mxCell>
        <mxCell id="qUpkaEM_-UjNtHQLn2R6-4" value="" style="endArrow=classic;html=1;entryX=0.5;entryY=1;entryDx=0;entryDy=0;exitX=0.5;exitY=0;exitDx=0;exitDy=0;" parent="g2Xse3lWouedzLYd1xVx-1" source="4jJjMonkpcFbtJczcELS-13" target="qUpkaEM_-UjNtHQLn2R6-1" edge="1">
          <mxGeometry width="50" height="50" relative="1" as="geometry">
            <mxPoint x="580" y="400" as="sourcePoint" />
            <mxPoint x="590" y="410" as="targetPoint" />
            <Array as="points" />
          </mxGeometry>
        </mxCell>
        <mxCell id="qUpkaEM_-UjNtHQLn2R6-5" value="" style="endArrow=classic;html=1;entryX=1;entryY=1;entryDx=0;entryDy=0;exitX=0.5;exitY=0;exitDx=0;exitDy=0;" parent="g2Xse3lWouedzLYd1xVx-1" source="qUpkaEM_-UjNtHQLn2R6-1" target="g2Xse3lWouedzLYd1xVx-2" edge="1">
          <mxGeometry width="50" height="50" relative="1" as="geometry">
            <mxPoint x="660" y="230" as="sourcePoint" />
            <mxPoint x="550" y="107" as="targetPoint" />
            <Array as="points" />
          </mxGeometry>
        </mxCell>
      </root>
    </mxGraphModel>
  </diagram>
  <diagram id="oQFGNTKlK_gTyuHEj95E" name="DeviceComponents">
    <mxGraphModel dx="1422" dy="834" grid="1" gridSize="10" guides="1" tooltips="1" connect="1" arrows="1" fold="1" page="1" pageScale="1" pageWidth="827" pageHeight="1169" math="0" shadow="0">
      <root>
        <mxCell id="CBAD-ejrL_S0z0rzkbWA-0" />
        <mxCell id="CBAD-ejrL_S0z0rzkbWA-1" parent="CBAD-ejrL_S0z0rzkbWA-0" />
        <mxCell id="CBAD-ejrL_S0z0rzkbWA-2" value="Actor" style="shape=umlActor;verticalLabelPosition=bottom;verticalAlign=top;html=1;outlineConnect=0;" parent="CBAD-ejrL_S0z0rzkbWA-1" vertex="1">
          <mxGeometry x="85" y="350" width="30" height="60" as="geometry" />
        </mxCell>
        <mxCell id="CBAD-ejrL_S0z0rzkbWA-4" value="&lt;pre style=&quot;background-color: #ffffff ; color: #080808 ; font-family: &amp;#34;consolas&amp;#34; , monospace ; font-size: 9 8pt&quot;&gt;&lt;span style=&quot;color: #000000&quot;&gt;MapsActivity&lt;/span&gt;&lt;/pre&gt;" style="rounded=0;whiteSpace=wrap;html=1;" parent="CBAD-ejrL_S0z0rzkbWA-1" vertex="1">
          <mxGeometry x="240" y="240" width="120" height="120" as="geometry" />
        </mxCell>
        <mxCell id="CBAD-ejrL_S0z0rzkbWA-10" value="" style="group" parent="CBAD-ejrL_S0z0rzkbWA-1" vertex="1" connectable="0">
          <mxGeometry x="315" y="245" width="40" height="30" as="geometry" />
        </mxCell>
        <mxCell id="CBAD-ejrL_S0z0rzkbWA-11" value="" style="whiteSpace=wrap;html=1;aspect=fixed;" parent="CBAD-ejrL_S0z0rzkbWA-10" vertex="1">
          <mxGeometry x="13.333333333333332" width="26.666666666666664" height="26.666666666666664" as="geometry" />
        </mxCell>
        <mxCell id="CBAD-ejrL_S0z0rzkbWA-12" value="" style="rounded=0;whiteSpace=wrap;html=1;" parent="CBAD-ejrL_S0z0rzkbWA-10" vertex="1">
          <mxGeometry y="3.75" width="13.333333333333332" height="7.5" as="geometry" />
        </mxCell>
        <mxCell id="CBAD-ejrL_S0z0rzkbWA-13" value="" style="rounded=0;whiteSpace=wrap;html=1;" parent="CBAD-ejrL_S0z0rzkbWA-10" vertex="1">
          <mxGeometry y="15.75" width="13.333333333333332" height="7.5" as="geometry" />
        </mxCell>
        <mxCell id="CBAD-ejrL_S0z0rzkbWA-14" value="&lt;pre style=&quot;background-color: #ffffff ; color: #080808 ; font-family: &amp;#34;consolas&amp;#34; , monospace ; font-size: 9 8pt&quot;&gt;&lt;pre style=&quot;font-family: &amp;#34;consolas&amp;#34; , monospace&quot;&gt;&lt;span style=&quot;color: #000000&quot;&gt;ScrActivity&lt;/span&gt;&lt;/pre&gt;&lt;/pre&gt;" style="rounded=0;whiteSpace=wrap;html=1;" parent="CBAD-ejrL_S0z0rzkbWA-1" vertex="1">
          <mxGeometry x="240" y="400" width="120" height="120" as="geometry" />
        </mxCell>
        <mxCell id="CBAD-ejrL_S0z0rzkbWA-15" value="" style="group" parent="CBAD-ejrL_S0z0rzkbWA-1" vertex="1" connectable="0">
          <mxGeometry x="315" y="405" width="40" height="30" as="geometry" />
        </mxCell>
        <mxCell id="CBAD-ejrL_S0z0rzkbWA-16" value="" style="whiteSpace=wrap;html=1;aspect=fixed;" parent="CBAD-ejrL_S0z0rzkbWA-15" vertex="1">
          <mxGeometry x="13.333333333333332" width="26.666666666666664" height="26.666666666666664" as="geometry" />
        </mxCell>
        <mxCell id="CBAD-ejrL_S0z0rzkbWA-17" value="" style="rounded=0;whiteSpace=wrap;html=1;" parent="CBAD-ejrL_S0z0rzkbWA-15" vertex="1">
          <mxGeometry y="3.75" width="13.333333333333332" height="7.5" as="geometry" />
        </mxCell>
        <mxCell id="CBAD-ejrL_S0z0rzkbWA-18" value="" style="rounded=0;whiteSpace=wrap;html=1;" parent="CBAD-ejrL_S0z0rzkbWA-15" vertex="1">
          <mxGeometry y="15.75" width="13.333333333333332" height="7.5" as="geometry" />
        </mxCell>
        <mxCell id="CBAD-ejrL_S0z0rzkbWA-19" value="" style="endArrow=classic;startArrow=classic;html=1;entryX=0;entryY=0.5;entryDx=0;entryDy=0;" parent="CBAD-ejrL_S0z0rzkbWA-1" target="CBAD-ejrL_S0z0rzkbWA-4" edge="1">
          <mxGeometry width="50" height="50" relative="1" as="geometry">
            <mxPoint x="120" y="380" as="sourcePoint" />
            <mxPoint x="200" y="320" as="targetPoint" />
          </mxGeometry>
        </mxCell>
        <mxCell id="CBAD-ejrL_S0z0rzkbWA-20" value="" style="endArrow=classic;startArrow=classic;html=1;entryX=0;entryY=0.5;entryDx=0;entryDy=0;" parent="CBAD-ejrL_S0z0rzkbWA-1" target="CBAD-ejrL_S0z0rzkbWA-14" edge="1">
          <mxGeometry width="50" height="50" relative="1" as="geometry">
            <mxPoint x="120" y="390" as="sourcePoint" />
            <mxPoint x="250" y="310" as="targetPoint" />
          </mxGeometry>
        </mxCell>
        <mxCell id="CBAD-ejrL_S0z0rzkbWA-21" value="&lt;pre style=&quot;background-color: #ffffff ; color: #080808 ; font-family: &amp;#34;consolas&amp;#34; , monospace ; font-size: 9 8pt&quot;&gt;&lt;pre style=&quot;font-family: &amp;#34;consolas&amp;#34; , monospace&quot;&gt;&lt;span style=&quot;color: #000000&quot;&gt;MapService&lt;/span&gt;&lt;/pre&gt;&lt;/pre&gt;" style="rounded=0;whiteSpace=wrap;html=1;" parent="CBAD-ejrL_S0z0rzkbWA-1" vertex="1">
          <mxGeometry x="480" y="160" width="120" height="120" as="geometry" />
        </mxCell>
        <mxCell id="CBAD-ejrL_S0z0rzkbWA-22" value="" style="group" parent="CBAD-ejrL_S0z0rzkbWA-1" vertex="1" connectable="0">
          <mxGeometry x="555" y="165" width="40" height="30" as="geometry" />
        </mxCell>
        <mxCell id="CBAD-ejrL_S0z0rzkbWA-23" value="" style="whiteSpace=wrap;html=1;aspect=fixed;" parent="CBAD-ejrL_S0z0rzkbWA-22" vertex="1">
          <mxGeometry x="13.333333333333332" width="26.666666666666664" height="26.666666666666664" as="geometry" />
        </mxCell>
        <mxCell id="CBAD-ejrL_S0z0rzkbWA-24" value="" style="rounded=0;whiteSpace=wrap;html=1;" parent="CBAD-ejrL_S0z0rzkbWA-22" vertex="1">
          <mxGeometry y="3.75" width="13.333333333333332" height="7.5" as="geometry" />
        </mxCell>
        <mxCell id="CBAD-ejrL_S0z0rzkbWA-25" value="" style="rounded=0;whiteSpace=wrap;html=1;" parent="CBAD-ejrL_S0z0rzkbWA-22" vertex="1">
          <mxGeometry y="15.75" width="13.333333333333332" height="7.5" as="geometry" />
        </mxCell>
        <mxCell id="CBAD-ejrL_S0z0rzkbWA-26" value="" style="ellipse;whiteSpace=wrap;html=1;aspect=fixed;" parent="CBAD-ejrL_S0z0rzkbWA-22" vertex="1">
          <mxGeometry x="20" y="6.330000000000002" width="13.33" height="13.33" as="geometry" />
        </mxCell>
        <mxCell id="CBAD-ejrL_S0z0rzkbWA-27" value="&lt;pre style=&quot;background-color: #ffffff ; color: #080808 ; font-family: &amp;#34;consolas&amp;#34; , monospace ; font-size: 9 8pt&quot;&gt;&lt;pre style=&quot;font-family: &amp;#34;consolas&amp;#34; , monospace&quot;&gt;&lt;pre style=&quot;font-family: &amp;#34;consolas&amp;#34; , monospace&quot;&gt;&lt;span style=&quot;color: #000000&quot;&gt;PusherService&lt;/span&gt;&lt;/pre&gt;&lt;/pre&gt;&lt;/pre&gt;" style="rounded=0;whiteSpace=wrap;html=1;" parent="CBAD-ejrL_S0z0rzkbWA-1" vertex="1">
          <mxGeometry x="480" y="320" width="120" height="120" as="geometry" />
        </mxCell>
        <mxCell id="CBAD-ejrL_S0z0rzkbWA-28" value="" style="group" parent="CBAD-ejrL_S0z0rzkbWA-1" vertex="1" connectable="0">
          <mxGeometry x="555" y="325" width="40" height="30" as="geometry" />
        </mxCell>
        <mxCell id="CBAD-ejrL_S0z0rzkbWA-29" value="" style="whiteSpace=wrap;html=1;aspect=fixed;" parent="CBAD-ejrL_S0z0rzkbWA-28" vertex="1">
          <mxGeometry x="13.333333333333332" width="26.666666666666664" height="26.666666666666664" as="geometry" />
        </mxCell>
        <mxCell id="CBAD-ejrL_S0z0rzkbWA-30" value="" style="rounded=0;whiteSpace=wrap;html=1;" parent="CBAD-ejrL_S0z0rzkbWA-28" vertex="1">
          <mxGeometry y="3.75" width="13.333333333333332" height="7.5" as="geometry" />
        </mxCell>
        <mxCell id="CBAD-ejrL_S0z0rzkbWA-31" value="" style="rounded=0;whiteSpace=wrap;html=1;" parent="CBAD-ejrL_S0z0rzkbWA-28" vertex="1">
          <mxGeometry y="15.75" width="13.333333333333332" height="7.5" as="geometry" />
        </mxCell>
        <mxCell id="CBAD-ejrL_S0z0rzkbWA-32" value="" style="ellipse;whiteSpace=wrap;html=1;aspect=fixed;" parent="CBAD-ejrL_S0z0rzkbWA-28" vertex="1">
          <mxGeometry x="20" y="6.330000000000002" width="13.33" height="13.33" as="geometry" />
        </mxCell>
        <mxCell id="CBAD-ejrL_S0z0rzkbWA-33" value="" style="endArrow=classic;startArrow=classic;html=1;entryX=0;entryY=0.5;entryDx=0;entryDy=0;exitX=1;exitY=0.25;exitDx=0;exitDy=0;" parent="CBAD-ejrL_S0z0rzkbWA-1" source="CBAD-ejrL_S0z0rzkbWA-4" target="CBAD-ejrL_S0z0rzkbWA-21" edge="1">
          <mxGeometry width="50" height="50" relative="1" as="geometry">
            <mxPoint x="390" y="220" as="sourcePoint" />
            <mxPoint x="440" y="170" as="targetPoint" />
          </mxGeometry>
        </mxCell>
        <mxCell id="CBAD-ejrL_S0z0rzkbWA-34" value="" style="endArrow=classic;startArrow=classic;html=1;entryX=0;entryY=0.5;entryDx=0;entryDy=0;exitX=1;exitY=0.75;exitDx=0;exitDy=0;" parent="CBAD-ejrL_S0z0rzkbWA-1" source="CBAD-ejrL_S0z0rzkbWA-4" target="CBAD-ejrL_S0z0rzkbWA-27" edge="1">
          <mxGeometry width="50" height="50" relative="1" as="geometry">
            <mxPoint x="400" y="320" as="sourcePoint" />
            <mxPoint x="490" y="230" as="targetPoint" />
          </mxGeometry>
        </mxCell>
        <mxCell id="CBAD-ejrL_S0z0rzkbWA-35" value="pusher.com" style="ellipse;shape=cloud;whiteSpace=wrap;html=1;" parent="CBAD-ejrL_S0z0rzkbWA-1" vertex="1">
          <mxGeometry x="700" y="340" width="160" height="80" as="geometry" />
        </mxCell>
        <mxCell id="MIrkjGedwoCJ6GhTZEjP-0" value="" style="endArrow=classic;startArrow=classic;html=1;exitX=1;exitY=0.5;exitDx=0;exitDy=0;entryX=0.083;entryY=0.5;entryDx=0;entryDy=0;entryPerimeter=0;" parent="CBAD-ejrL_S0z0rzkbWA-1" source="CBAD-ejrL_S0z0rzkbWA-27" target="CBAD-ejrL_S0z0rzkbWA-35" edge="1">
          <mxGeometry width="50" height="50" relative="1" as="geometry">
            <mxPoint x="650" y="410" as="sourcePoint" />
            <mxPoint x="700" y="360" as="targetPoint" />
          </mxGeometry>
        </mxCell>
        <mxCell id="MIrkjGedwoCJ6GhTZEjP-1" value="maps.google.com" style="ellipse;shape=cloud;whiteSpace=wrap;html=1;" parent="CBAD-ejrL_S0z0rzkbWA-1" vertex="1">
          <mxGeometry x="700" y="179" width="160" height="80" as="geometry" />
        </mxCell>
        <mxCell id="MIrkjGedwoCJ6GhTZEjP-2" value="" style="endArrow=classic;html=1;exitX=1;exitY=0.5;exitDx=0;exitDy=0;" parent="CBAD-ejrL_S0z0rzkbWA-1" source="CBAD-ejrL_S0z0rzkbWA-21" edge="1">
          <mxGeometry width="50" height="50" relative="1" as="geometry">
            <mxPoint x="602" y="220" as="sourcePoint" />
            <mxPoint x="716" y="220" as="targetPoint" />
          </mxGeometry>
        </mxCell>
        <mxCell id="MIrkjGedwoCJ6GhTZEjP-3" value="&lt;pre style=&quot;background-color: rgb(255, 255, 255); font-family: consolas, monospace;&quot;&gt;&lt;pre style=&quot;font-family: &amp;quot;consolas&amp;quot; , monospace&quot;&gt;&lt;pre style=&quot;font-family: &amp;quot;consolas&amp;quot; , monospace&quot;&gt;&lt;span style=&quot;&quot;&gt;FirebaseService&lt;/span&gt;&lt;/pre&gt;&lt;/pre&gt;&lt;/pre&gt;" style="rounded=0;whiteSpace=wrap;html=1;strokeColor=#82b366;fillColor=none;" parent="CBAD-ejrL_S0z0rzkbWA-1" vertex="1">
          <mxGeometry x="480" y="480" width="120" height="120" as="geometry" />
        </mxCell>
        <mxCell id="MIrkjGedwoCJ6GhTZEjP-4" value="" style="group;" parent="CBAD-ejrL_S0z0rzkbWA-1" vertex="1" connectable="0">
          <mxGeometry x="555" y="485" width="40" height="30" as="geometry" />
        </mxCell>
        <mxCell id="MIrkjGedwoCJ6GhTZEjP-5" value="" style="whiteSpace=wrap;html=1;aspect=fixed;strokeColor=#82b366;fillColor=none;" parent="MIrkjGedwoCJ6GhTZEjP-4" vertex="1">
          <mxGeometry x="13.333333333333332" width="26.666666666666664" height="26.666666666666664" as="geometry" />
        </mxCell>
        <mxCell id="MIrkjGedwoCJ6GhTZEjP-6" value="" style="rounded=0;whiteSpace=wrap;html=1;strokeColor=#82b366;fillColor=none;" parent="MIrkjGedwoCJ6GhTZEjP-4" vertex="1">
          <mxGeometry y="3.75" width="13.333333333333332" height="7.5" as="geometry" />
        </mxCell>
        <mxCell id="MIrkjGedwoCJ6GhTZEjP-7" value="" style="rounded=0;whiteSpace=wrap;html=1;strokeColor=#82b366;fillColor=none;" parent="MIrkjGedwoCJ6GhTZEjP-4" vertex="1">
          <mxGeometry y="15.75" width="13.333333333333332" height="7.5" as="geometry" />
        </mxCell>
        <mxCell id="MIrkjGedwoCJ6GhTZEjP-8" value="" style="ellipse;whiteSpace=wrap;html=1;aspect=fixed;strokeColor=#82b366;fillColor=none;" parent="MIrkjGedwoCJ6GhTZEjP-4" vertex="1">
          <mxGeometry x="20" y="6.330000000000002" width="13.33" height="13.33" as="geometry" />
        </mxCell>
        <mxCell id="MIrkjGedwoCJ6GhTZEjP-9" value="" style="endArrow=classic;startArrow=classic;html=1;exitX=1;exitY=0.5;exitDx=0;exitDy=0;entryX=0;entryY=0.25;entryDx=0;entryDy=0;fillColor=#d5e8d4;strokeColor=#82b366;" parent="CBAD-ejrL_S0z0rzkbWA-1" source="CBAD-ejrL_S0z0rzkbWA-14" target="MIrkjGedwoCJ6GhTZEjP-3" edge="1">
          <mxGeometry width="50" height="50" relative="1" as="geometry">
            <mxPoint x="410" y="530" as="sourcePoint" />
            <mxPoint x="460" y="480" as="targetPoint" />
          </mxGeometry>
        </mxCell>
        <mxCell id="MIrkjGedwoCJ6GhTZEjP-10" value="&amp;nbsp;firebase.google.com" style="ellipse;shape=cloud;whiteSpace=wrap;html=1;" parent="CBAD-ejrL_S0z0rzkbWA-1" vertex="1">
          <mxGeometry x="340" y="680" width="160" height="80" as="geometry" />
        </mxCell>
        <mxCell id="MIrkjGedwoCJ6GhTZEjP-11" value="" style="endArrow=classic;startArrow=classic;html=1;entryX=0.5;entryY=1;entryDx=0;entryDy=0;exitX=0.375;exitY=0.063;exitDx=0;exitDy=0;exitPerimeter=0;fillColor=#e51400;strokeColor=#B20000;" parent="CBAD-ejrL_S0z0rzkbWA-1" source="MIrkjGedwoCJ6GhTZEjP-10" target="CBAD-ejrL_S0z0rzkbWA-14" edge="1">
          <mxGeometry width="50" height="50" relative="1" as="geometry">
            <mxPoint x="320" y="640" as="sourcePoint" />
            <mxPoint x="370" y="590" as="targetPoint" />
          </mxGeometry>
        </mxCell>
        <mxCell id="MIrkjGedwoCJ6GhTZEjP-12" value="" style="endArrow=classic;startArrow=classic;html=1;exitX=0.563;exitY=0.125;exitDx=0;exitDy=0;entryX=0.25;entryY=1;entryDx=0;entryDy=0;fillColor=#d5e8d4;strokeColor=#82b366;exitPerimeter=0;" parent="CBAD-ejrL_S0z0rzkbWA-1" source="MIrkjGedwoCJ6GhTZEjP-10" target="MIrkjGedwoCJ6GhTZEjP-3" edge="1">
          <mxGeometry width="50" height="50" relative="1" as="geometry">
            <mxPoint x="370" y="470" as="sourcePoint" />
            <mxPoint x="490" y="550" as="targetPoint" />
          </mxGeometry>
        </mxCell>
      </root>
    </mxGraphModel>
  </diagram>
  <diagram id="adiRfwW66rgFSuOgqzJK" name="PushChannelModel">
    <mxGraphModel dx="2249" dy="834" grid="1" gridSize="10" guides="1" tooltips="1" connect="1" arrows="1" fold="1" page="1" pageScale="1" pageWidth="827" pageHeight="1169" math="0" shadow="0">
      <root>
        <mxCell id="Go9VpVeZ4K3Pj2w4HcUq-0" />
        <mxCell id="Go9VpVeZ4K3Pj2w4HcUq-1" parent="Go9VpVeZ4K3Pj2w4HcUq-0" />
        <mxCell id="Go9VpVeZ4K3Pj2w4HcUq-2" value="Область видимости&amp;nbsp;&lt;br&gt;участника1" style="ellipse;whiteSpace=wrap;html=1;aspect=fixed;fillColor=none;" vertex="1" parent="Go9VpVeZ4K3Pj2w4HcUq-1">
          <mxGeometry x="280" y="320" width="120" height="120" as="geometry" />
        </mxCell>
        <mxCell id="Go9VpVeZ4K3Pj2w4HcUq-3" value="Область видимости&amp;nbsp;&lt;br&gt;участника 2" style="ellipse;whiteSpace=wrap;html=1;aspect=fixed;fillColor=none;" vertex="1" parent="Go9VpVeZ4K3Pj2w4HcUq-1">
          <mxGeometry x="350" y="400" width="120" height="120" as="geometry" />
        </mxCell>
        <mxCell id="Go9VpVeZ4K3Pj2w4HcUq-4" value="" style="endArrow=none;dashed=1;html=1;" edge="1" parent="Go9VpVeZ4K3Pj2w4HcUq-1">
          <mxGeometry width="50" height="50" relative="1" as="geometry">
            <mxPoint x="160" y="710" as="sourcePoint" />
            <mxPoint x="160" y="40" as="targetPoint" />
          </mxGeometry>
        </mxCell>
        <mxCell id="Go9VpVeZ4K3Pj2w4HcUq-5" value="" style="endArrow=none;dashed=1;html=1;" edge="1" parent="Go9VpVeZ4K3Pj2w4HcUq-1">
          <mxGeometry width="50" height="50" relative="1" as="geometry">
            <mxPoint x="360" y="710" as="sourcePoint" />
            <mxPoint x="360" y="40" as="targetPoint" />
          </mxGeometry>
        </mxCell>
        <mxCell id="Go9VpVeZ4K3Pj2w4HcUq-6" value="" style="endArrow=none;dashed=1;html=1;" edge="1" parent="Go9VpVeZ4K3Pj2w4HcUq-1">
          <mxGeometry width="50" height="50" relative="1" as="geometry">
            <mxPoint x="560" y="700" as="sourcePoint" />
            <mxPoint x="560" y="40" as="targetPoint" />
          </mxGeometry>
        </mxCell>
        <mxCell id="Go9VpVeZ4K3Pj2w4HcUq-7" value="" style="endArrow=none;dashed=1;html=1;" edge="1" parent="Go9VpVeZ4K3Pj2w4HcUq-1">
          <mxGeometry width="50" height="50" relative="1" as="geometry">
            <mxPoint x="760" y="700" as="sourcePoint" />
            <mxPoint x="760" y="40" as="targetPoint" />
          </mxGeometry>
        </mxCell>
        <mxCell id="Go9VpVeZ4K3Pj2w4HcUq-8" value="" style="endArrow=none;dashed=1;html=1;" edge="1" parent="Go9VpVeZ4K3Pj2w4HcUq-1">
          <mxGeometry width="50" height="50" relative="1" as="geometry">
            <mxPoint x="-40" y="710" as="sourcePoint" />
            <mxPoint x="-40" y="40" as="targetPoint" />
          </mxGeometry>
        </mxCell>
        <mxCell id="Go9VpVeZ4K3Pj2w4HcUq-9" value="" style="endArrow=none;dashed=1;html=1;" edge="1" parent="Go9VpVeZ4K3Pj2w4HcUq-1">
          <mxGeometry width="50" height="50" relative="1" as="geometry">
            <mxPoint x="-70" y="80" as="sourcePoint" />
            <mxPoint x="800" y="80" as="targetPoint" />
          </mxGeometry>
        </mxCell>
        <mxCell id="Go9VpVeZ4K3Pj2w4HcUq-10" value="" style="endArrow=none;dashed=1;html=1;" edge="1" parent="Go9VpVeZ4K3Pj2w4HcUq-1">
          <mxGeometry width="50" height="50" relative="1" as="geometry">
            <mxPoint x="-70" y="280" as="sourcePoint" />
            <mxPoint x="803" y="280" as="targetPoint" />
          </mxGeometry>
        </mxCell>
        <mxCell id="Go9VpVeZ4K3Pj2w4HcUq-11" value="" style="endArrow=none;dashed=1;html=1;" edge="1" parent="Go9VpVeZ4K3Pj2w4HcUq-1">
          <mxGeometry width="50" height="50" relative="1" as="geometry">
            <mxPoint x="-80" y="480" as="sourcePoint" />
            <mxPoint x="803" y="480" as="targetPoint" />
          </mxGeometry>
        </mxCell>
        <mxCell id="Go9VpVeZ4K3Pj2w4HcUq-12" value="" style="endArrow=none;dashed=1;html=1;" edge="1" parent="Go9VpVeZ4K3Pj2w4HcUq-1">
          <mxGeometry width="50" height="50" relative="1" as="geometry">
            <mxPoint x="-70" y="680" as="sourcePoint" />
            <mxPoint x="803" y="680" as="targetPoint" />
          </mxGeometry>
        </mxCell>
        <mxCell id="Go9VpVeZ4K3Pj2w4HcUq-13" value="X1" style="text;html=1;strokeColor=none;fillColor=none;align=center;verticalAlign=middle;whiteSpace=wrap;rounded=0;" vertex="1" parent="Go9VpVeZ4K3Pj2w4HcUq-1">
          <mxGeometry x="40" y="40" width="40" height="20" as="geometry" />
        </mxCell>
        <mxCell id="Go9VpVeZ4K3Pj2w4HcUq-14" value="X2" style="text;html=1;strokeColor=none;fillColor=none;align=center;verticalAlign=middle;whiteSpace=wrap;rounded=0;" vertex="1" parent="Go9VpVeZ4K3Pj2w4HcUq-1">
          <mxGeometry x="240" y="40" width="40" height="20" as="geometry" />
        </mxCell>
        <mxCell id="Go9VpVeZ4K3Pj2w4HcUq-15" value="X3" style="text;html=1;strokeColor=none;fillColor=none;align=center;verticalAlign=middle;whiteSpace=wrap;rounded=0;" vertex="1" parent="Go9VpVeZ4K3Pj2w4HcUq-1">
          <mxGeometry x="440" y="40" width="40" height="20" as="geometry" />
        </mxCell>
        <mxCell id="Go9VpVeZ4K3Pj2w4HcUq-16" value="X4" style="text;html=1;strokeColor=none;fillColor=none;align=center;verticalAlign=middle;whiteSpace=wrap;rounded=0;" vertex="1" parent="Go9VpVeZ4K3Pj2w4HcUq-1">
          <mxGeometry x="640" y="40" width="40" height="20" as="geometry" />
        </mxCell>
        <mxCell id="Go9VpVeZ4K3Pj2w4HcUq-17" value="Y2" style="text;html=1;strokeColor=none;fillColor=none;align=center;verticalAlign=middle;whiteSpace=wrap;rounded=0;" vertex="1" parent="Go9VpVeZ4K3Pj2w4HcUq-1">
          <mxGeometry x="-100" y="370" width="40" height="20" as="geometry" />
        </mxCell>
        <mxCell id="Go9VpVeZ4K3Pj2w4HcUq-18" value="Y1" style="text;html=1;strokeColor=none;fillColor=none;align=center;verticalAlign=middle;whiteSpace=wrap;rounded=0;" vertex="1" parent="Go9VpVeZ4K3Pj2w4HcUq-1">
          <mxGeometry x="-100" y="170" width="40" height="20" as="geometry" />
        </mxCell>
        <mxCell id="Go9VpVeZ4K3Pj2w4HcUq-19" value="Y3" style="text;html=1;strokeColor=none;fillColor=none;align=center;verticalAlign=middle;whiteSpace=wrap;rounded=0;" vertex="1" parent="Go9VpVeZ4K3Pj2w4HcUq-1">
          <mxGeometry x="-100" y="574.5" width="40" height="20" as="geometry" />
        </mxCell>
        <mxCell id="Go9VpVeZ4K3Pj2w4HcUq-20" value="Участник 1 пушит в канал X2_Y2, слушает каналы: X2_Y2, X3_Y2&lt;br&gt;Участник 2 пушит в канал X3_Y2, слушает каналы X2_Y2, X3_Y2, X2_Y3, X3_Y4" style="text;html=1;strokeColor=none;fillColor=none;align=left;verticalAlign=middle;whiteSpace=wrap;rounded=0;" vertex="1" parent="Go9VpVeZ4K3Pj2w4HcUq-1">
          <mxGeometry x="-80" y="720" width="880" height="40" as="geometry" />
        </mxCell>
      </root>
    </mxGraphModel>
  </diagram>
</mxfile>
